<svg xmlns="http://www.w3.org/2000/svg" xmlns:xlink="http://www.w3.org/1999/xlink" width="1366" zoomAndPan="magnify" viewBox="0 0 1024.5 576" height="768" preserveAspectRatio="xMidYMid meet" version="1.0"><defs><clipPath id="19e0d946da"><path d="M 0 0.140625 L 1024 0.140625 L 1024 575.859375 L 0 575.859375 Z M 0 0.140625 " clip-rule="nonzero"/></clipPath><clipPath id="171f2fb859"><path d="M 0 0.140625 L 751.132812 0.140625 L 751.132812 575.859375 L 0 575.859375 Z M 0 0.140625 " clip-rule="nonzero"/></clipPath><clipPath id="294c5525d1"><path d="M 287 0.140625 L 751.132812 0.140625 L 751.132812 366 L 287 366 Z M 287 0.140625 " clip-rule="nonzero"/></clipPath><clipPath id="56f9ab2037"><path d="M 508 0.140625 L 734 0.140625 L 734 124 L 508 124 Z M 508 0.140625 " clip-rule="nonzero"/></clipPath><clipPath id="a7f1dd96ba"><path d="M 19 196 L 293 196 L 293 575.859375 L 19 575.859375 Z M 19 196 " clip-rule="nonzero"/></clipPath><clipPath id="a6f1019206"><path d="M 0 360 L 290 360 L 290 575.859375 L 0 575.859375 Z M 0 360 " clip-rule="nonzero"/></clipPath><clipPath id="95d01e3a2c"><path d="M 677 263 L 751.132812 263 L 751.132812 331 L 677 331 Z M 677 263 " clip-rule="nonzero"/></clipPath><clipPath id="acc5eb0816"><path d="M 0 0.140625 L 160 0.140625 L 160 74 L 0 74 Z M 0 0.140625 " clip-rule="nonzero"/></clipPath><clipPath id="fe5d3cee02"><path d="M 502 416 L 662 416 L 662 575.859375 L 502 575.859375 Z M 502 416 " clip-rule="nonzero"/></clipPath><clipPath id="e8a2bd3a88"><path d="M 243 308 L 514 308 L 514 575.859375 L 243 575.859375 Z M 243 308 " clip-rule="nonzero"/></clipPath><clipPath id="e529cf0cc4"><path d="M 0 0.140625 L 743 0.140625 L 743 575.859375 L 0 575.859375 Z M 0 0.140625 " clip-rule="nonzero"/></clipPath><clipPath id="08054dc132"><path d="M 0 0.140625 L 751.132812 0.140625 L 751.132812 575.859375 L 0 575.859375 Z M 0 0.140625 " clip-rule="nonzero"/></clipPath><clipPath id="9cfe0df3ba"><path d="M 265 0.140625 L 667 0.140625 L 667 226 L 265 226 Z M 265 0.140625 " clip-rule="nonzero"/></clipPath><clipPath id="de2dd9ac2c"><path d="M 0 17 L 559 17 L 559 575.859375 L 0 575.859375 Z M 0 17 " clip-rule="nonzero"/></clipPath><clipPath id="a4866faecd"><path d="M 557 0.140625 L 751.132812 0.140625 L 751.132812 19 L 557 19 Z M 557 0.140625 " clip-rule="nonzero"/></clipPath><clipPath id="f025bc976e"><path d="M 0 452 L 124 452 L 124 575.859375 L 0 575.859375 Z M 0 452 " clip-rule="nonzero"/></clipPath><clipPath id="dcccbbed9d"><path d="M 0 413 L 163 413 L 163 575.859375 L 0 575.859375 Z M 0 413 " clip-rule="nonzero"/></clipPath><clipPath id="1e2848e777"><path d="M 0 365 L 212 365 L 212 575.859375 L 0 575.859375 Z M 0 365 " clip-rule="nonzero"/></clipPath><clipPath id="424e21e6e5"><path d="M 534 36 L 751.132812 36 L 751.132812 254 L 534 254 Z M 534 36 " clip-rule="nonzero"/></clipPath><clipPath id="043698bc04"><path d="M 152 308 L 422 308 L 422 575.859375 L 152 575.859375 Z M 152 308 " clip-rule="nonzero"/></clipPath><clipPath id="87d079376e"><path d="M 750.84375 0.140625 L 1024 0.140625 L 1024 575.859375 L 750.84375 575.859375 Z M 750.84375 0.140625 " clip-rule="nonzero"/></clipPath><clipPath id="2dd598bc1d"><path d="M 769 196 L 1024 196 L 1024 575.859375 L 769 575.859375 Z M 769 196 " clip-rule="nonzero"/></clipPath><clipPath id="a260d243f8"><path d="M 750.84375 360 L 1024 360 L 1024 575.859375 L 750.84375 575.859375 Z M 750.84375 360 " clip-rule="nonzero"/></clipPath><clipPath id="137ffda8e2"><path d="M 750.84375 0.140625 L 911 0.140625 L 911 74 L 750.84375 74 Z M 750.84375 0.140625 " clip-rule="nonzero"/></clipPath><clipPath id="878e627f3c"><path d="M 994 308 L 1024 308 L 1024 575.859375 L 994 575.859375 Z M 994 308 " clip-rule="nonzero"/></clipPath><clipPath id="3432c5b79e"><path d="M 750.84375 0.140625 L 1024 0.140625 L 1024 575.859375 L 750.84375 575.859375 Z M 750.84375 0.140625 " clip-rule="nonzero"/></clipPath><clipPath id="c0cfe53220"><path d="M 750.84375 302 L 1010 302 L 1010 561 L 750.84375 561 Z M 750.84375 302 " clip-rule="nonzero"/></clipPath><clipPath id="d03571c130"><path d="M 750.84375 0.140625 L 1024 0.140625 L 1024 575.859375 L 750.84375 575.859375 Z M 750.84375 0.140625 " clip-rule="nonzero"/></clipPath><clipPath id="278c83ae84"><path d="M 1016 0.140625 L 1024 0.140625 L 1024 226 L 1016 226 Z M 1016 0.140625 " clip-rule="nonzero"/></clipPath><clipPath id="ea216dcc0d"><path d="M 750.84375 17 L 1024 17 L 1024 575.859375 L 750.84375 575.859375 Z M 750.84375 17 " clip-rule="nonzero"/></clipPath><clipPath id="50f0b84155"><path d="M 750.84375 452 L 875 452 L 875 575.859375 L 750.84375 575.859375 Z M 750.84375 452 " clip-rule="nonzero"/></clipPath><clipPath id="f56afd4f5f"><path d="M 750.84375 413 L 914 413 L 914 575.859375 L 750.84375 575.859375 Z M 750.84375 413 " clip-rule="nonzero"/></clipPath><clipPath id="1936f12891"><path d="M 750.84375 365 L 962 365 L 962 575.859375 L 750.84375 575.859375 Z M 750.84375 365 " clip-rule="nonzero"/></clipPath><clipPath id="a5ffbc9af1"><path d="M 750.84375 252 L 1024 252 L 1024 543 L 750.84375 543 Z M 750.84375 252 " clip-rule="nonzero"/></clipPath><clipPath id="61f4a40af8"><path d="M 903 308 L 1024 308 L 1024 575.859375 L 903 575.859375 Z M 903 308 " clip-rule="nonzero"/></clipPath></defs><g clip-path="url(#19e0d946da)"><path fill="#ffffff" d="M 0 0.140625 L 1024 0.140625 L 1024 575.859375 L 0 575.859375 Z M 0 0.140625 " fill-opacity="1" fill-rule="nonzero"/><path fill="#110406" d="M 0 0.140625 L 1024 0.140625 L 1024 575.859375 L 0 575.859375 Z M 0 0.140625 " fill-opacity="1" fill-rule="nonzero"/></g><g clip-path="url(#171f2fb859)"><path fill="#100f14" d="M 0 576.21875 L 0 -174.90625 L 751.125 -174.90625 L 751.125 576.21875 Z M 0 576.21875 " fill-opacity="1" fill-rule="evenodd"/></g><g clip-path="url(#294c5525d1)"><path fill="#fbd625" d="M 751.007812 365.304688 L 668.433594 282.726562 L 667.804688 282.101562 L 667.804688 281.476562 L 665.617188 202.964844 L 533.621094 70.96875 L 533.621094 70.34375 L 531.429688 -8.167969 L 450.730469 -88.554688 L 372.53125 -90.746094 L 371.59375 -91.058594 L 371.28125 -91.371094 L 287.453125 -174.882812 L 292.457031 -174.882812 L 373.160156 -94.183594 L 451.667969 -91.996094 L 452.292969 -91.996094 L 534.871094 -9.417969 L 534.871094 -8.792969 L 537.058594 69.71875 L 668.433594 201.089844 L 669.058594 201.402344 L 669.058594 202.027344 L 671.246094 280.539062 L 751.007812 360.296875 Z M 751.007812 365.304688 " fill-opacity="1" fill-rule="nonzero"/></g><g clip-path="url(#56f9ab2037)"><path fill="#fbd625" d="M 720.980469 117.574219 C 720.980469 116.636719 720.980469 115.382812 721.605469 114.757812 L 643.722656 36.875 L 643.722656 36.25 L 641.53125 -42.261719 L 508.910156 -174.882812 L 513.914062 -174.882812 L 644.347656 -44.136719 L 644.972656 -43.824219 L 644.972656 -43.199219 L 647.160156 35.308594 L 724.109375 112.257812 C 725.046875 111.628906 725.984375 111.316406 726.921875 111.316406 C 730.363281 111.316406 733.179688 114.132812 733.179688 117.574219 C 733.179688 121.015625 730.363281 123.828125 726.921875 123.828125 C 723.484375 123.828125 720.980469 121.015625 720.980469 117.574219 Z M 720.980469 117.574219 " fill-opacity="1" fill-rule="nonzero"/></g><g clip-path="url(#a7f1dd96ba)"><path fill="#fbd625" d="M 69.753906 200.777344 L 70.378906 201.089844 L 153.894531 284.917969 L 154.519531 285.230469 L 154.519531 285.855469 L 156.707031 361.550781 L 292.457031 497.925781 L 292.457031 576.125 L 287.765625 576.125 L 287.765625 500.117188 L 284.011719 496.363281 L 153.894531 366.242188 L 153.265625 365.929688 L 153.265625 365.304688 L 151.078125 286.792969 L 68.5 204.214844 L 30.652344 204.214844 C 30.027344 206.40625 27.839844 208.28125 25.023438 208.28125 C 22.207031 208.28125 19.082031 205.46875 19.082031 202.339844 C 19.082031 199.210938 22.207031 196.398438 25.023438 196.398438 C 27.839844 196.398438 30.027344 198.273438 30.652344 200.777344 Z M 69.753906 200.777344 " fill-opacity="1" fill-rule="nonzero"/></g><g clip-path="url(#a6f1019206)"><path fill="#fbd625" d="M 211.132812 576.125 L 0 365.304688 L 0 360.296875 L 211.132812 571.433594 L 289.957031 571.433594 L 289.957031 576.125 Z M 211.132812 576.125 " fill-opacity="1" fill-rule="nonzero"/></g><g clip-path="url(#95d01e3a2c)"><path fill="#fbd625" d="M 751.007812 330.582031 L 751.007812 320.886719 L 735.054688 320.886719 L 744.441406 330.582031 Z M 751.007812 311.191406 L 751.007812 302.121094 L 750.695312 301.808594 L 715.976562 301.808594 L 725.359375 311.191406 Z M 677.503906 263.332031 L 712.222656 263.332031 L 721.917969 273.03125 L 687.199219 273.03125 Z M 696.582031 282.414062 L 731.617188 282.414062 L 741 292.109375 L 706.28125 292.109375 Z M 696.582031 282.414062 " fill-opacity="1" fill-rule="evenodd"/></g><g clip-path="url(#acc5eb0816)"><path fill="#fbd625" d="M 102.59375 70.34375 L 0 -32.253906 L 0 -25.683594 L 96.339844 70.65625 C 98.527344 70.65625 100.40625 70.34375 102.59375 70.34375 Z M 0 -85.738281 L 0 -78.859375 L 151.703125 72.53125 C 154.207031 72.84375 156.707031 73.15625 159.210938 73.46875 Z M 0 -72.289062 L 0 -65.722656 L 137 71.28125 C 139.503906 71.59375 141.695312 71.59375 144.195312 71.90625 Z M 0 -58.839844 L 0 -52.269531 L 122.925781 70.65625 C 125.117188 70.65625 127.617188 70.65625 129.808594 70.96875 Z M 0 -45.703125 L 0 -38.820312 L 109.476562 70.34375 C 111.664062 70.34375 113.855469 70.34375 116.046875 70.34375 Z M 0 -45.703125 " fill-opacity="1" fill-rule="evenodd"/></g><g clip-path="url(#fe5d3cee02)"><path fill="#fbd625" d="M 608.375 576.125 L 505.78125 473.527344 C 505.78125 475.71875 505.78125 477.90625 505.46875 480.097656 L 601.808594 576.125 Z M 661.863281 576.125 L 655.292969 576.125 L 503.589844 424.734375 C 503.277344 422.230469 502.964844 419.417969 502.652344 416.914062 Z M 648.414062 576.125 L 641.84375 576.125 L 504.84375 439.121094 C 504.84375 436.933594 504.53125 434.429688 504.21875 431.925781 Z M 635.277344 576.125 L 628.394531 576.125 L 505.46875 453.199219 C 505.46875 451.007812 505.46875 448.503906 505.15625 446.316406 Z M 621.824219 576.125 L 615.257812 576.125 L 505.78125 466.960938 C 505.78125 464.769531 505.78125 462.269531 505.78125 460.078125 Z M 621.824219 576.125 " fill-opacity="1" fill-rule="evenodd"/></g><g clip-path="url(#e8a2bd3a88)"><path fill="#fbd625" d="M 254.921875 322.136719 L 508.910156 576.125 L 513.914062 576.125 L 257.425781 319.636719 C 258.050781 318.699219 258.363281 318.699219 258.363281 315.882812 C 258.363281 313.378906 255.238281 308.6875 251.171875 308.6875 C 247.105469 308.6875 243.976562 312.128906 243.976562 315.882812 C 243.976562 319.949219 248.355469 323.078125 251.171875 323.078125 C 253.671875 323.078125 253.671875 322.765625 254.921875 322.136719 Z M 254.921875 322.136719 " fill-opacity="1" fill-rule="evenodd"/></g><g clip-path="url(#e529cf0cc4)"><path fill="#2d3039" d="M 471.375 377.1875 L 670.308594 576.125 L 695.957031 576.125 L 459.175781 339.34375 C 463.867188 351.539062 467.933594 364.363281 471.375 377.1875 Z M 719.417969 576.125 L 742.5625 576.125 L 383.792969 217.355469 C 405.375 241.125 424.144531 267.398438 439.15625 296.175781 Z M 0 -94.183594 L 198.933594 104.75 C 212.070312 108.191406 224.582031 112.570312 237.09375 117.261719 L 0 -119.832031 Z M 280.257812 136.96875 C 308.722656 152.292969 334.996094 170.75 358.769531 192.644531 L 0 -166.4375 L 0 -143.292969 Z M 280.257812 136.96875 " fill-opacity="1" fill-rule="evenodd"/></g><path fill="#fbd625" d="M 213.949219 550.789062 L 248.667969 550.789062 L 258.363281 560.484375 L 223.332031 560.484375 Z M 0 302.121094 L 0 311.191406 L 9.070312 311.191406 Z M 0 320.886719 L 0 330.582031 L 28.152344 330.582031 L 18.765625 320.886719 Z M 3.128906 339.96875 L 37.847656 339.96875 L 47.542969 349.664062 L 12.511719 349.664062 Z M 22.207031 359.359375 L 56.929688 359.359375 L 66.625 368.742188 L 31.90625 368.742188 Z M 41.289062 378.441406 L 76.320312 378.441406 L 85.703125 387.824219 L 50.984375 387.824219 Z M 60.367188 397.519531 L 95.402344 397.519531 L 105.097656 407.21875 L 70.066406 407.21875 Z M 79.761719 416.601562 L 114.480469 416.601562 L 124.175781 426.296875 L 89.144531 426.296875 Z M 98.839844 435.992188 L 133.5625 435.992188 L 143.257812 445.378906 L 108.539062 445.378906 Z M 117.921875 455.074219 L 152.953125 455.074219 L 162.339844 464.457031 L 127.617188 464.457031 Z M 137.316406 474.152344 L 172.035156 474.152344 L 181.730469 483.851562 L 146.699219 483.851562 Z M 156.394531 493.234375 L 191.113281 493.234375 L 200.8125 502.929688 L 165.777344 502.929688 Z M 175.476562 512.628906 L 210.195312 512.628906 L 219.890625 522.011719 L 185.171875 522.011719 Z M 194.554688 531.707031 L 229.585938 531.707031 L 238.972656 541.089844 L 204.25 541.089844 Z M 194.554688 531.707031 " fill-opacity="1" fill-rule="evenodd"/><g clip-path="url(#08054dc132)"><path fill="#2d3039" d="M 667.804688 282.101562 L 210.507812 -174.882812 L 174.222656 -174.882812 L 751.007812 401.585938 L 751.007812 365.304688 Z M 162.652344 -174.882812 L 129.183594 -174.882812 L 751.007812 446.628906 L 751.007812 413.160156 Z M 123.238281 -174.882812 L 0 -174.882812 L 751.007812 576.125 L 751.007812 452.570312 Z M 632.148438 425.671875 L 692.828125 425.671875 L 709.40625 442.25 L 648.726562 442.25 Z M 665.617188 459.140625 L 726.296875 459.140625 L 742.875 475.71875 L 682.195312 475.71875 Z M 375.972656 109.128906 L 315.605469 109.128906 L 298.714844 92.238281 L 359.394531 92.238281 Z M 342.816406 75.660156 L 282.136719 75.660156 L 265.558594 59.082031 L 325.925781 59.082031 Z M 309.347656 42.191406 L 248.667969 42.191406 L 232.089844 25.613281 L 292.769531 25.613281 Z M 276.195312 9.035156 L 215.511719 9.035156 L 198.621094 -7.855469 L 259.304688 -7.855469 Z M 242.726562 -24.433594 L 182.042969 -24.433594 L 165.464844 -41.011719 L 226.148438 -41.011719 Z M 209.257812 -57.589844 L 148.886719 -57.589844 L 131.996094 -74.480469 L 192.679688 -74.480469 Z M 492.644531 225.800781 L 509.535156 242.378906 L 448.851562 242.378906 L 432.277344 225.800781 Z M 476.066406 208.910156 L 415.386719 208.910156 L 398.808594 192.332031 L 459.488281 192.332031 Z M 442.910156 175.753906 L 382.230469 175.753906 L 365.339844 158.863281 L 426.019531 158.863281 Z M 409.441406 142.285156 L 348.761719 142.285156 L 332.183594 125.707031 L 392.863281 125.707031 Z M 559.582031 292.421875 L 576.160156 309 L 515.476562 309 L 498.898438 292.421875 Z M 542.691406 275.53125 L 482.007812 275.53125 L 465.429688 258.953125 L 526.113281 258.953125 Z M 609.316406 342.46875 L 548.945312 342.46875 L 532.054688 325.578125 L 592.738281 325.578125 Z M 626.207031 359.046875 L 642.78125 375.625 L 582.101562 375.625 L 565.523438 359.046875 Z M 598.992188 392.515625 L 659.359375 392.515625 L 676.25 409.09375 L 615.570312 409.09375 Z M 598.992188 392.515625 " fill-opacity="1" fill-rule="evenodd"/></g><g clip-path="url(#9cfe0df3ba)"><path fill="#2d3039" d="M 265.558594 -174.882812 L 666.242188 225.488281 L 665.617188 202.964844 L 533.621094 70.96875 L 533.621094 70.34375 L 531.429688 -8.167969 L 450.730469 -88.554688 L 372.53125 -90.746094 L 371.59375 -91.058594 L 371.28125 -91.371094 L 287.453125 -174.882812 Z M 265.558594 -174.882812 " fill-opacity="1" fill-rule="evenodd"/></g><g clip-path="url(#de2dd9ac2c)"><path fill="#fbd625" d="M 0 17.480469 L 558.644531 576.125 L 557.390625 576.125 L 0 18.730469 Z M 0 17.480469 " fill-opacity="1" fill-rule="nonzero"/></g><g clip-path="url(#a4866faecd)"><path fill="#fbd625" d="M 558.644531 -174.882812 L 751.007812 17.480469 L 751.007812 18.730469 L 557.390625 -174.882812 Z M 558.644531 -174.882812 " fill-opacity="1" fill-rule="nonzero"/></g><g clip-path="url(#f025bc976e)"><path fill="#2d3039" d="M 123.550781 576.125 L 0 452.570312 L 0 576.125 Z M 123.550781 576.125 " fill-opacity="1" fill-rule="evenodd"/></g><g clip-path="url(#dcccbbed9d)"><path fill="#2d3039" d="M 0 446.628906 L 129.496094 576.125 L 162.964844 576.125 L 0 413.160156 Z M 0 446.628906 " fill-opacity="1" fill-rule="evenodd"/></g><g clip-path="url(#1e2848e777)"><path fill="#2d3039" d="M 0 401.585938 L 174.535156 576.125 L 211.132812 576.125 L 0 365.304688 Z M 0 401.585938 " fill-opacity="1" fill-rule="evenodd"/></g><g clip-path="url(#424e21e6e5)"><path fill="#fbd625" d="M 535.496094 36.875 L 751.007812 252.386719 L 751.007812 253.636719 L 534.871094 37.5 Z M 535.496094 36.875 " fill-opacity="1" fill-rule="nonzero"/></g><path fill="#fbd625" d="M 0 252.386719 L 289.957031 542.34375 L 289.332031 542.96875 L 0 253.636719 Z M 0 252.386719 " fill-opacity="1" fill-rule="nonzero"/><g clip-path="url(#043698bc04)"><path fill="#fbd625" d="M 420.390625 576.125 L 152.953125 308.6875 L 153.578125 308.0625 L 421.640625 576.125 Z M 420.390625 576.125 " fill-opacity="1" fill-rule="nonzero"/></g><g clip-path="url(#87d079376e)"><path fill="#100f14" d="M 750.84375 576.21875 L 750.84375 -174.90625 L 1501.96875 -174.90625 L 1501.96875 576.21875 Z M 750.84375 576.21875 " fill-opacity="1" fill-rule="evenodd"/></g><g clip-path="url(#2dd598bc1d)"><path fill="#fbd625" d="M 820.59375 200.777344 L 821.222656 201.089844 L 904.734375 284.917969 L 905.363281 285.230469 L 905.363281 285.855469 L 907.550781 361.550781 L 1043.300781 497.925781 L 1043.300781 576.125 L 1038.609375 576.125 L 1038.609375 500.117188 L 904.734375 366.242188 L 904.109375 365.929688 L 904.109375 365.304688 L 901.921875 286.792969 L 819.34375 204.214844 L 781.496094 204.214844 C 780.871094 206.40625 778.683594 208.28125 775.867188 208.28125 C 773.050781 208.28125 769.921875 205.46875 769.921875 202.339844 C 769.921875 199.210938 773.050781 196.398438 775.867188 196.398438 C 778.683594 196.398438 780.871094 198.273438 781.496094 200.777344 Z M 820.59375 200.777344 " fill-opacity="1" fill-rule="nonzero"/></g><g clip-path="url(#a260d243f8)"><path fill="#fbd625" d="M 961.976562 576.125 L 750.84375 365.304688 L 750.84375 360.296875 L 961.976562 571.433594 L 1040.800781 571.433594 L 1040.800781 576.125 Z M 961.976562 576.125 " fill-opacity="1" fill-rule="nonzero"/></g><g clip-path="url(#137ffda8e2)"><path fill="#fbd625" d="M 853.4375 70.34375 L 750.84375 -32.253906 L 750.84375 -25.683594 L 847.183594 70.65625 C 849.371094 70.65625 851.25 70.34375 853.4375 70.34375 Z M 750.84375 -85.738281 L 750.84375 -78.859375 L 902.546875 72.53125 C 905.050781 72.84375 907.550781 73.15625 910.054688 73.46875 Z M 750.84375 -72.289062 L 750.84375 -65.722656 L 887.84375 71.28125 C 890.347656 71.59375 892.539062 71.59375 895.039062 71.90625 Z M 750.84375 -58.839844 L 750.84375 -52.269531 L 873.769531 70.65625 C 875.960938 70.65625 878.460938 70.65625 880.652344 70.96875 Z M 750.84375 -45.703125 L 750.84375 -38.820312 L 860.320312 70.34375 C 862.507812 70.34375 864.699219 70.34375 866.886719 70.34375 Z M 750.84375 -45.703125 " fill-opacity="1" fill-rule="evenodd"/></g><g clip-path="url(#878e627f3c)"><path fill="#fbd625" d="M 1005.765625 322.136719 L 1259.753906 576.125 L 1264.757812 576.125 L 1008.269531 319.636719 C 1008.894531 318.699219 1009.207031 318.699219 1009.207031 315.882812 C 1009.207031 313.378906 1006.078125 308.6875 1002.015625 308.6875 C 997.949219 308.6875 994.820312 312.128906 994.820312 315.882812 C 994.820312 319.949219 999.199219 323.078125 1002.015625 323.078125 C 1004.515625 323.078125 1004.515625 322.765625 1005.765625 322.136719 Z M 1005.765625 322.136719 " fill-opacity="1" fill-rule="evenodd"/></g><g clip-path="url(#3432c5b79e)"><path fill="#2d3039" d="M 1222.21875 377.1875 L 1421.152344 576.125 L 1446.800781 576.125 L 1210.019531 339.34375 C 1214.710938 351.539062 1218.777344 364.363281 1222.21875 377.1875 Z M 1470.261719 576.125 L 1493.40625 576.125 L 1134.636719 217.355469 C 1156.21875 241.125 1174.988281 267.398438 1190 296.175781 Z M 750.84375 -94.183594 L 949.777344 104.75 C 962.914062 108.191406 975.425781 112.570312 987.9375 117.261719 L 750.84375 -119.832031 Z M 1031.101562 136.96875 C 1059.566406 152.292969 1085.839844 170.75 1109.613281 192.644531 L 750.84375 -166.4375 L 750.84375 -143.292969 Z M 1031.101562 136.96875 " fill-opacity="1" fill-rule="evenodd"/></g><g clip-path="url(#c0cfe53220)"><path fill="#fbd625" d="M 964.792969 550.789062 L 999.511719 550.789062 L 1009.207031 560.484375 L 974.175781 560.484375 Z M 750.84375 302.121094 L 750.84375 311.191406 L 759.914062 311.191406 Z M 750.84375 320.886719 L 750.84375 330.582031 L 778.996094 330.582031 L 769.609375 320.886719 Z M 753.972656 339.96875 L 788.691406 339.96875 L 798.386719 349.664062 L 763.355469 349.664062 Z M 773.050781 359.359375 L 807.769531 359.359375 L 817.46875 368.742188 L 782.75 368.742188 Z M 792.132812 378.441406 L 827.164062 378.441406 L 836.546875 387.824219 L 801.828125 387.824219 Z M 811.210938 397.519531 L 846.246094 397.519531 L 855.941406 407.21875 L 820.910156 407.21875 Z M 830.605469 416.601562 L 865.324219 416.601562 L 875.019531 426.296875 L 839.988281 426.296875 Z M 849.683594 435.992188 L 884.40625 435.992188 L 894.101562 445.378906 L 859.382812 445.378906 Z M 868.765625 455.074219 L 903.796875 455.074219 L 913.179688 464.457031 L 878.460938 464.457031 Z M 888.160156 474.152344 L 922.878906 474.152344 L 932.574219 483.851562 L 897.542969 483.851562 Z M 907.238281 493.234375 L 941.957031 493.234375 L 951.65625 502.929688 L 916.621094 502.929688 Z M 926.320312 512.628906 L 961.039062 512.628906 L 970.734375 522.011719 L 936.015625 522.011719 Z M 945.398438 531.707031 L 980.429688 531.707031 L 989.816406 541.089844 L 955.09375 541.089844 Z M 945.398438 531.707031 " fill-opacity="1" fill-rule="evenodd"/></g><g clip-path="url(#d03571c130)"><path fill="#2d3039" d="M 1418.648438 282.101562 L 961.351562 -174.882812 L 925.066406 -174.882812 L 1501.851562 401.585938 L 1501.851562 365.304688 Z M 913.496094 -174.882812 L 880.027344 -174.882812 L 1501.851562 446.628906 L 1501.851562 413.160156 Z M 874.082031 -174.882812 L 750.84375 -174.882812 L 1501.851562 576.125 L 1501.851562 452.570312 Z M 1382.992188 425.671875 L 1443.671875 425.671875 L 1460.25 442.25 L 1399.570312 442.25 Z M 1416.460938 459.140625 L 1477.140625 459.140625 L 1493.71875 475.71875 L 1433.039062 475.71875 Z M 1126.816406 109.128906 L 1066.449219 109.128906 L 1049.558594 92.238281 L 1110.238281 92.238281 Z M 1093.660156 75.660156 L 1032.980469 75.660156 L 1016.402344 59.082031 L 1076.769531 59.082031 Z M 1060.191406 42.191406 L 999.511719 42.191406 L 982.933594 25.613281 L 1043.613281 25.613281 Z M 1027.035156 9.035156 L 966.355469 9.035156 L 949.464844 -7.855469 L 1010.144531 -7.855469 Z M 993.570312 -24.433594 L 932.886719 -24.433594 L 916.308594 -41.011719 L 976.992188 -41.011719 Z M 960.101562 -57.589844 L 899.730469 -57.589844 L 882.839844 -74.480469 L 943.523438 -74.480469 Z M 1243.488281 225.800781 L 1260.378906 242.378906 L 1199.695312 242.378906 L 1183.117188 225.800781 Z M 1226.910156 208.910156 L 1166.226562 208.910156 L 1149.652344 192.332031 L 1210.332031 192.332031 Z M 1193.753906 175.753906 L 1133.074219 175.753906 L 1116.183594 158.863281 L 1176.863281 158.863281 Z M 1160.285156 142.285156 L 1099.605469 142.285156 L 1083.027344 125.707031 L 1143.707031 125.707031 Z M 1310.425781 292.421875 L 1327.003906 309 L 1266.320312 309 L 1249.742188 292.421875 Z M 1293.535156 275.53125 L 1232.851562 275.53125 L 1216.273438 258.953125 L 1276.957031 258.953125 Z M 1360.15625 342.46875 L 1299.789062 342.46875 L 1282.898438 325.578125 L 1343.582031 325.578125 Z M 1377.046875 359.046875 L 1393.625 375.625 L 1332.945312 375.625 L 1316.367188 359.046875 Z M 1349.835938 392.515625 L 1410.203125 392.515625 L 1427.09375 409.09375 L 1366.414062 409.09375 Z M 1349.835938 392.515625 " fill-opacity="1" fill-rule="evenodd"/></g><g clip-path="url(#278c83ae84)"><path fill="#2d3039" d="M 1016.402344 -174.882812 L 1417.085938 225.488281 L 1416.460938 202.964844 L 1284.464844 70.96875 L 1284.464844 70.34375 L 1282.273438 -8.167969 L 1201.574219 -88.554688 L 1123.375 -90.746094 L 1122.4375 -91.058594 L 1122.125 -91.371094 L 1038.296875 -174.882812 Z M 1016.402344 -174.882812 " fill-opacity="1" fill-rule="evenodd"/></g><g clip-path="url(#ea216dcc0d)"><path fill="#fbd625" d="M 750.84375 17.480469 L 1309.484375 576.125 L 1308.234375 576.125 L 750.84375 18.730469 Z M 750.84375 17.480469 " fill-opacity="1" fill-rule="nonzero"/></g><g clip-path="url(#50f0b84155)"><path fill="#2d3039" d="M 874.394531 576.125 L 750.84375 452.570312 L 750.84375 576.125 Z M 874.394531 576.125 " fill-opacity="1" fill-rule="evenodd"/></g><g clip-path="url(#f56afd4f5f)"><path fill="#2d3039" d="M 750.84375 446.628906 L 880.339844 576.125 L 913.808594 576.125 L 750.84375 413.160156 Z M 750.84375 446.628906 " fill-opacity="1" fill-rule="evenodd"/></g><g clip-path="url(#1936f12891)"><path fill="#2d3039" d="M 750.84375 401.585938 L 925.378906 576.125 L 961.976562 576.125 L 750.84375 365.304688 Z M 750.84375 401.585938 " fill-opacity="1" fill-rule="evenodd"/></g><g clip-path="url(#a5ffbc9af1)"><path fill="#fbd625" d="M 750.84375 252.386719 L 1040.800781 542.34375 L 1040.175781 542.96875 L 750.84375 253.636719 Z M 750.84375 252.386719 " fill-opacity="1" fill-rule="nonzero"/></g><g clip-path="url(#61f4a40af8)"><path fill="#fbd625" d="M 1171.234375 576.125 L 903.796875 308.6875 L 904.421875 308.0625 L 1172.484375 576.125 Z M 1171.234375 576.125 " fill-opacity="1" fill-rule="nonzero"/></g></svg>